# xmcd
#
# Track frame offsets:
#   150
#   11473
#   25373
#   39064
#   54371
#   83011
#   97719
#   109543
#
# Disc length: 1686 seconds
#
# Revision: 0
# Processed by: cddbd v1.5.2PL0 Copyright (c) Steve Scherf et al.
# Submitted via: GXTranscoder 2.0.1939
#
DISCID=45069408
DTITLE=B.B. King - Lucille Talks Back
DYEAR=1975
DGENRE=Blues
TTITLE0=Lucille Talks Back (Copulation)
TTITLE1=Breaking Up Somebody's Home
TTITLE2=Reconsider Baby
TTITLE3=Don't Make Me Pay For His Mistakes
TTITLE4=Whem I'm Wrong
TTITLE5=I Now The Price
TTITLE6=Have Faith
TTITLE7=Everybody Lies A Little
EXTD=Produced by B.B. King\nABC Records, Inc.\nStereo 89 740 XOT
EXTT0=
EXTT1=
EXTT2=
EXTT3=
EXTT4=
EXTT5=
EXTT6=
EXTT7=
PLAYORDER=
